{"title":"Ted 2 (2015) x264 720p AAC ITA SUB ITA ENG","uid":12791080,"size":4534141848,"categoryP":"video","categoryS":"movies","magnet":"?xt=urn:btih:b28512cb03866717501d5f4e2a742fa51c1c00c4&amp;dn=Ted+2+%282015%29+x264+720p+AAC+ITA+SUB+ITA+ENG&amp;tr=udp%3A%2F%2Ftracker.leechers-paradise.org%3A6969&amp;tr=udp%3A%2F%2Fzer0day.ch%3A1337&amp;tr=udp%3A%2F%2Fopen.demonii.com%3A1337&amp;tr=udp%3A%2F%2Ftracker.coppersurfer.tk%3A6969&amp;tr=udp%3A%2F%2Fexodus.desync.com%3A6969","seeders":0,"leechers":1,"uploader":"xtron197777","files":1,"time":1447920119,"description":"Ted 2 (2015)\r\n \nhttp://i.imgur.com/30smkPp.jpg?1\r\n\r\n-: Cast :-\r\n\r\nMark Wahlberg: John Bennett\r\nAmanda Seyfried: Samantha Leslie Jackson\r\nJessica Barth: Tami-Lynn McCafferty\r\nRichard Schiff: Steve\r\nPatrick Warburton: Guy\r\nGiovanni Ribisi: Donny\r\nMorgan Freeman: Patrick Meighan\r\nMichael Dorn: Rick\r\nBill Smitrovich: Frank\r\nJohn Slattery: Shep Wild\r\nJohn Carroll Lynch: Tom Jessup\r\nCocoa Brown: Joy\r\nDennis Haysbert: Dottore della fertilità\r\nLiam Neeson: cliente\r\nSam J. Jones: Sé stesso\r\nRon Canada: giudice\r\nDennis Haysbert: specialista in fertilità\r\nTom Brady: Sé stesso\r\nJay Leno: Sè stesso\r\nJimmy Kimmel: Sè stesso\r\nKate McKinnon: Sè stesso\r\nBobby Moynihan: Sè stesso\r\nTaran Killam: Sè stesso\r\nSebastian Arcelus: Dr. Ed Danzer\r\nJay Patterson: Karl Jackson\r\nJessica Szohr: Allison\r\nNana Visitor: assistente sociale\r\nJulius Sharpe: dottore di New York\r\nMartin Klebba: Chucky\r\n\r\n-: Trama :-\r\n\r\nTed si è sposato con Tami-Lynn, la sua fidanzata, però John, il suo migliore amico, è afflitto a causa del divorzio con Lori. Dopo un anno il rapporto tra i due coniugi diventa sempre più difficile. Ted e Tami-Lynn decidono di avere un figlio per tentare di rafforzare la loro relazione e dal momento che Ted, che è di peluche, è incapace di funzioni riproduttive, va da John per chiedere aiuto e allo stesso tempo cerca di incoraggiare John a cercare una nuova compagna.\r\n\r\n-: Info :-\r\nGeneral \r\nFormat profile : Base Media \r\nCodec ID : isom \r\nFile size : 4.22 GiB \r\nDuration : 1h 55mn \r\nOverall bit rate mode : Variable \r\nOverall bit rate : 5 232 Kbps \r\nEncoded date : UTC 2015-11-19 07:43:37 \r\nTagged date : UTC 2015-11-19 07:43:37 \r\nWriting application : Lavf57.3.100 \r\n\r\nVideo \r\nID : 1 \r\nFormat : AVC \r\nFormat/Info : Advanced Video Codec \r\nFormat profile :    \r\nFormat settings, CABAC : Yes \r\nFormat settings, ReFrames : 4 frames \r\nCodec ID : avc1 \r\nCodec ID/Info : Advanced Video Coding \r\nDuration : 1h 55mn \r\nBit rate : 5 096 Kbps \r\nWidth : 1 280 pixels \r\nHeight : 536 pixels \r\nDisplay aspect ratio : 2.40:1 \r\nFrame rate mode : Variable \r\nFrame rate : 23.976 fps \r\nMinimum frame rate : 23.564 fps \r\nMaximum frame rate : 24.390 fps \r\nColor space : YUV \r\nChroma subsampling : 4:2:0 \r\nBit depth : 8 bits \r\nScan type : Progressive \r\nBits/(Pixel*Frame) : 0.310 \r\nStream size : 4.11 GiB (97%) \r\nWriting library : x264 core 146 r2538 121396c \r\nEncoding settings : cabac=1 / ref=2 / deblock=1:-2:-1 / analyse=0x3:0x113 / me=hex / subme=6 / psy=1 / psy_rd=1.00:0.00 / mixed_ref=1 / me_range=16 / chroma_me=1 / trellis=1 / 8x8dct=1 / cqm=0 / deadzone=21,11 / fast_pskip=1 / chroma_qp_offset=-2 / threads=12 / lookahead_threads=2 / sliced_threads=0 / nr=0 / decimate=0 / interlaced=0 / bluray_compat=0 / constrained_intra=0 / bframes=3 / b_pyramid=2 / b_adapt=1 / b_bias=0 / direct=1 / weightb=1 / open_gop=0 / weightp=1 / keyint=240 / keyint_min=24 / scenecut=40 / intra_refresh=0 / rc_lookahead=30 / rc=2pass / mbtree=1 / bitrate=5096 / ratetol=1.0 / qcomp=0.60 / qpmin=0 / qpmax=69 / qpstep=4 / cplxblur=20.0 / qblur=0.5 / vbv_maxrate=50000 / vbv_bufsize=50000 / nal_hrd=none / filler=0 / ip_ratio=1.40 / aq=1:1.00 \r\nEncoded date : UTC 2015-11-19 07:43:37 \r\nTagged date : UTC 2015-11-19 07:43:37 \r\n\r\nAudio \r\nID : 2 \r\nFormat : AAC \r\nFormat/Info : Advanced Audio Codec \r\nFormat profile : LC \r\nCodec ID : 40 \r\nDuration : 1h 55mn \r\nBit rate mode : Constant \r\nBit rate : 128 Kbps \r\nChannel(s) : 2 channels \r\nChannel positions : Front: L R \r\nSampling rate : 48.0 KHz \r\nCompression mode : Lossy \r\nStream size : 106 MiB (2%) \r\nLanguage : Italian \r\nEncoded date : UTC 2015-11-19 07:43:37 \r\nTagged date : UTC 2015-11-19 07:43:37 \r\n\r\nText #1 \r\nID : 3 \r\nFormat : Timed Text \r\nMuxing mode : sbtl \r\nCodec ID : tx3g \r\nDuration : 1h 55mn \r\nBit rate mode : Variable \r\nBit rate : 3 bps \r\nStream size : 2.83 KiB (0%) \r\nLanguage : Italian \r\nEncoded date : UTC 2015-11-19 07:43:37 \r\nTagged date : UTC 2015-11-19 07:43:37 \r\n\r\nText #2 \r\nID : 4 \r\nFormat : Timed Text \r\nMuxing mode : sbtl \r\nCodec ID : tx3g \r\nDuration : 1h 55mn \r\nBit rate mode : Variable \r\nBit rate : 81 bps \r\nStream size : 68.4 KiB (0%) \r\nLanguage : Italian \r\nEncoded date : UTC 2015-11-19 07:43:37 \r\nTagged date : UTC 2015-11-19 07:43:37 \r\n\r\nText #3 \r\nID : 5 \r\nFormat : Timed Text \r\nMuxing mode : sbtl \r\nCodec ID : tx3g \r\nDuration : 1h 48mn \r\nBit rate mode : Variable \r\nBit rate : 101 bps \r\nStream size : 79.9 KiB (0%) \r\nLanguage : Italian \r\nEncoded date : UTC 2015-11-19 07:43:37 \r\nTagged date : UTC 2015-11-19 07:43:37 \r\n\r\nText #4 \r\nID : 6 \r\nFormat : Timed Text \r\nMuxing mode : sbtl \r\nCodec ID : tx3g \r\nDuration : 1h 48mn \r\nBit rate mode : Variable \r\nBit rate : 104 bps \r\nStream size : 82.8 KiB (0%) \r\nLanguage : English \r\nEncoded date : UTC 2015-11-19 07:43:37 \r\nTagged date : UTC 2015-11-19 07:43:37","torrent":{"xt":"urn:btih:b28512cb03866717501d5f4e2a742fa51c1c00c4","amp;dn":"Ted+2+%282015%29+x264+720p+AAC+ITA+SUB+ITA+ENG","amp;tr":["udp%3A%2F%2Ftracker.leechers-paradise.org%3A6969","udp%3A%2F%2Fzer0day.ch%3A1337","udp%3A%2F%2Fopen.demonii.com%3A1337","udp%3A%2F%2Ftracker.coppersurfer.tk%3A6969","udp%3A%2F%2Fexodus.desync.com%3A6969"],"infoHash":"b28512cb03866717501d5f4e2a742fa51c1c00c4","infoHashBuffer":{"type":"Buffer","data":[178,133,18,203,3,134,103,23,80,29,95,78,42,116,47,165,28,28,0,196]},"announce":[],"urlList":[]}}